<svg width="32" height="32" viewBox="0 0 32 32" xmlns="http://www.w3.org/2000/svg">
  <rect width="32" height="32" rx="4" fill="#1DB954"/>
  <path d="M16 6C10.477 6 6 10.477 6 16C6 21.523 10.477 26 16 26C21.523 26 26 21.523 26 16C26 10.477 21.523 6 16 6ZM20.5 18.5C20.5 19.163 19.963 19.7 19.3 19.7C18.637 19.7 18.1 19.163 18.1 18.5V13.5C18.1 12.837 18.637 12.3 19.3 12.3C19.963 12.3 20.5 12.837 20.5 13.5V18.5ZM13.9 18.5C13.9 19.163 13.363 19.7 12.7 19.7C12.037 19.7 11.5 19.163 11.5 18.5V13.5C11.5 12.837 12.037 12.3 12.7 12.3C13.363 12.3 13.9 12.837 13.9 13.5V18.5Z" fill="white"/>
</svg>